{
  "accessors": [
    {
      "bufferView": 2,
      "componentType": 5126,
      "count": 243,
      "max": [
        0.17852500081062317,
        -0.3662540018558502,
        0.18569199740886688
      ],
      "min": [
        -0.19215700030326843,
        -1.0,
        -0.18569299578666687
      ],
      "type": "VEC3"
    },
    {
      "bufferView": 2,
      "byteOffset": 2916,
      "componentType": 5126,
      "count": 243,
      "max": [
        1.0,
        1.0,
        1.0
      ],
      "min": [
        -1.0,
        -1.0,
        -1.0
      ],
      "type": "VEC3"
    },
    {
      "bufferView": 3,
      "componentType": 5126,
      "count": 243,
      "max": [
        0.9999995231628418,
        0.7265881299972534,
        1.0,
        1.0
      ],
      "min": [
        -0.9999871253967285,
        -0.7287977337837219,
        -0.9977713227272034,
        1.0
      ],
      "type": "VEC4"
    },
    {
      "bufferView": 1,
      "componentType": 5126,
      "count": 243,
      "max": [
        0.9085739850997925,
        0.996982991695404
      ],
      "min": [
        0.0005000000237487257,
        0.0005000000237487257
      ],
      "type": "VEC2"
    },
    {
      "bufferView": 0,
      "componentType": 5125,
      "count": 1074,
      "type": "SCALAR"
    },
    {
      "bufferView": 2,
      "byteOffset": 5832,
      "componentType": 5126,
      "count": 1370,
      "max": [
        0.34244999289512634,
        1.0,
        0.029790500178933144
      ],
      "min": [
        -0.3885110020637512,
        -0.48482999205589294,
        -0.08708339929580688
      ],
      "type": "VEC3"
    },
    {
      "bufferView": 2,
      "byteOffset": 22272,
      "componentType": 5126,
      "count": 1370,
      "max": [
        0.9998883605003357,
        0.991977870464325,
        0.9999756217002869
      ],
      "min": [
        -0.9999481439590454,
        -0.9947999715805054,
        -0.9997541308403015
      ],
      "type": "VEC3"
    },
    {
      "bufferView": 3,
      "byteOffset": 3888,
      "componentType": 5126,
      "count": 1370,
      "max": [
        0.9993429780006409,
        0.9962947964668274,
        0.9999579787254333,
        1.0
      ],
      "min": [
        -0.9990199208259583,
        -0.9908004999160767,
        -0.9997609257698059,
        1.0
      ],
      "type": "VEC4"
    },
    {
      "bufferView": 1,
      "byteOffset": 1944,
      "componentType": 5126,
      "count": 1370,
      "max": [
        0.9945849776268005,
        0.9994999766349792
      ],
      "min": [
        0.0005000000237487257,
        0.005213070195168257
      ],
      "type": "VEC2"
    },
    {
      "bufferView": 0,
      "byteOffset": 4296,
      "componentType": 5125,
      "count": 6450,
      "type": "SCALAR"
    },
    {
      "bufferView": 2,
      "byteOffset": 38712,
      "componentType": 5126,
      "count": 307,
      "max": [
        0.3885110020637512,
        0.7786020040512085,
        0.03141459822654724
      ],
      "min": [
        0.21232500672340393,
        0.5941529870033264,
        -0.08518069982528687
      ],
      "type": "VEC3"
    },
    {
      "bufferView": 2,
      "byteOffset": 42396,
      "componentType": 5126,
      "count": 307,
      "max": [
        0.9723663330078125,
        0.9920591115951538,
        0.9751902222633362
      ],
      "min": [
        -0.9967004656791687,
        -0.9844884872436523,
        -0.9997541308403015
      ],
      "type": "VEC3"
    },
    {
      "bufferView": 3,
      "byteOffset": 25808,
      "componentType": 5126,
      "count": 307,
      "max": [
        0.9969441890716553,
        0.9978244304656982,
        0.9946208596229553,
        1.0
      ],
      "min": [
        -0.9979787468910217,
        -0.992053210735321,
        -0.9995160102844238,
        1.0
      ],
      "type": "VEC4"
    },
    {
      "bufferView": 1,
      "byteOffset": 12904,
      "componentType": 5126,
      "count": 307,
      "max": [
        0.6846309900283813,
        0.9746999740600586
      ],
      "min": [
        0.17017099261283875,
        0.4482420086860657
      ],
      "type": "VEC2"
    },
    {
      "bufferView": 0,
      "byteOffset": 30096,
      "componentType": 5125,
      "count": 1428,
      "type": "SCALAR"
    }
  ],
  "asset": {
    "extras": {
      "author": "Elsie (https://sketchfab.com/octopodmadness)",
      "license": "CC-BY-4.0 (http://creativecommons.org/licenses/by/4.0/)",
      "source": "https://sketchfab.com/3d-models/neon-cactus-lamp-bb8202ecfd7b4b3496bf280a50757449",
      "title": "Neon Cactus Lamp"
    },
    "generator": "Sketchfab-12.68.0",
    "version": "2.0"
  },
  "bufferViews": [
    {
      "buffer": 0,
      "byteLength": 35808,
      "name": "floatBufferViews",
      "target": 34963
    },
    {
      "buffer": 0,
      "byteLength": 15360,
      "byteOffset": 35808,
      "byteStride": 8,
      "name": "floatBufferViews",
      "target": 34962
    },
    {
      "buffer": 0,
      "byteLength": 46080,
      "byteOffset": 51168,
      "byteStride": 12,
      "name": "floatBufferViews",
      "target": 34962
    },
    {
      "buffer": 0,
      "byteLength": 30720,
      "byteOffset": 97248,
      "byteStride": 16,
      "name": "floatBufferViews",
      "target": 34962
    }
  ],
  "buffers": [
    {
      "byteLength": 127968,
      "uri": "scene.bin"
    }
  ],
  "images": [
    {
      "uri": "textures/neon_pink_baseColor.jpeg"
    },
    {
      "uri": "textures/neon_pink_metallicRoughness.png"
    },
    {
      "uri": "textures/neon_pink_emissive.jpeg"
    },
    {
      "uri": "textures/neon_pink_normal.png"
    },
    {
      "uri": "textures/neon_green_baseColor.jpeg"
    },
    {
      "uri": "textures/neon_green_metallicRoughness.png"
    },
    {
      "uri": "textures/neon_green_emissive.jpeg"
    },
    {
      "uri": "textures/neon_green_normal.png"
    },
    {
      "uri": "textures/base_white_plastic_baseColor.jpeg"
    },
    {
      "uri": "textures/base_white_plastic_metallicRoughness.png"
    },
    {
      "uri": "textures/base_white_plastic_normal.png"
    }
  ],
  "materials": [
    {
      "doubleSided": true,
      "emissiveFactor": [
        1.0,
        1.0,
        1.0
      ],
      "emissiveTexture": {
        "index": 2
      },
      "name": "neon_pink",
      "normalTexture": {
        "index": 3
      },
      "occlusionTexture": {
        "index": 1
      },
      "pbrMetallicRoughness": {
        "baseColorTexture": {
          "index": 0
        },
        "metallicRoughnessTexture": {
          "index": 1
        }
      }
    },
    {
      "doubleSided": true,
      "emissiveFactor": [
        1.0,
        1.0,
        1.0
      ],
      "emissiveTexture": {
        "index": 6
      },
      "name": "neon_green",
      "normalTexture": {
        "index": 7
      },
      "occlusionTexture": {
        "index": 5
      },
      "pbrMetallicRoughness": {
        "baseColorTexture": {
          "index": 4
        },
        "metallicRoughnessTexture": {
          "index": 5
        }
      }
    },
    {
      "doubleSided": true,
      "name": "base_white_plastic",
      "normalTexture": {
        "index": 10
      },
      "occlusionTexture": {
        "index": 9
      },
      "pbrMetallicRoughness": {
        "baseColorTexture": {
          "index": 8
        },
        "metallicRoughnessTexture": {
          "index": 9
        }
      }
    }
  ],
  "meshes": [
    {
      "name": "defaultMaterial",
      "primitives": [
        {
          "attributes": {
            "NORMAL": 1,
            "POSITION": 0,
            "TANGENT": 2,
            "TEXCOORD_0": 3
          },
          "indices": 4,
          "material": 2,
          "mode": 4
        }
      ]
    },
    {
      "name": "defaultMaterial",
      "primitives": [
        {
          "attributes": {
            "NORMAL": 6,
            "POSITION": 5,
            "TANGENT": 7,
            "TEXCOORD_0": 8
          },
          "indices": 9,
          "material": 1,
          "mode": 4
        }
      ]
    },
    {
      "name": "defaultMaterial",
      "primitives": [
        {
          "attributes": {
            "NORMAL": 11,
            "POSITION": 10,
            "TANGENT": 12,
            "TEXCOORD_0": 13
          },
          "indices": 14,
          "material": 0,
          "mode": 4
        }
      ]
    }
  ],
  "nodes": [
    {
      "children": [
        1
      ],
      "matrix": [
        0.31731128692626953,
        -5.1027545902596515e-17,
        -1.6995586905353915e-32,
        0.0,
        2.540659569993823e-33,
        1.2148480524639329e-16,
        -0.31731128692626953,
        0.0,
        5.1027545902596515e-17,
        0.31731128692626953,
        1.2148480524639329e-16,
        0.0,
        -3.3881317890172014e-21,
        -2.3711290708661206e-09,
        1.0765436542214957e-08,
        1.0
      ],
      "name": "Sketchfab_model"
    },
    {
      "children": [
        2,
        4,
        6
      ],
      "matrix": [
        1.0,
        0.0,
        0.0,
        0.0,
        0.0,
        -4.371139006309477e-08,
        0.999999999999999,
        0.0,
        0.0,
        -0.999999999999999,
        -4.371139006309477e-08,
        0.0,
        0.0,
        0.0,
        0.0,
        1.0
      ],
      "name": "Collada visual scene group"
    },
    {
      "children": [
        3
      ],
      "name": "base_lp"
    },
    {
      "mesh": 0,
      "name": "defaultMaterial"
    },
    {
      "children": [
        5
      ],
      "name": "base_lp"
    },
    {
      "mesh": 1,
      "name": "defaultMaterial"
    },
    {
      "children": [
        7
      ],
      "name": "base_lp"
    },
    {
      "mesh": 2,
      "name": "defaultMaterial"
    }
  ],
  "samplers": [
    {
      "magFilter": 9729,
      "minFilter": 9987,
      "wrapS": 10497,
      "wrapT": 10497
    }
  ],
  "scene": 0,
  "scenes": [
    {
      "name": "Sketchfab_Scene",
      "nodes": [
        0
      ]
    }
  ],
  "textures": [
    {
      "sampler": 0,
      "source": 0
    },
    {
      "sampler": 0,
      "source": 1
    },
    {
      "sampler": 0,
      "source": 2
    },
    {
      "sampler": 0,
      "source": 3
    },
    {
      "sampler": 0,
      "source": 4
    },
    {
      "sampler": 0,
      "source": 5
    },
    {
      "sampler": 0,
      "source": 6
    },
    {
      "sampler": 0,
      "source": 7
    },
    {
      "sampler": 0,
      "source": 8
    },
    {
      "sampler": 0,
      "source": 9
    },
    {
      "sampler": 0,
      "source": 10
    }
  ]
}
